<?xml version="1.0" encoding="utf-8"?>
<!-- Generator: Adobe Illustrator 21.1.0, SVG Export Plug-In . SVG Version: 6.00 Build 0)  -->
<svg version="1.1" id="Layer_1" xmlns="http://www.w3.org/2000/svg" xmlns:xlink="http://www.w3.org/1999/xlink" x="0px" y="0px"
	 viewBox="0 0 160 160.4" style="enable-background:new 0 0 160 160.4;" xml:space="preserve">
<style type="text/css">
	.st0{fill:#EAEED5;}
	.st1{fill:#B24C07;}
	.st2{fill:#FE8C32;}
	.st3{fill:#FFC190;}
	.st4{fill:#5F0019;}
	.st5{fill:#FFFFFF;}
	.st6{fill:#FF9583;}
</style>
<g>
	<rect class="st0" width="160" height="160"/>
	<g>
		<path class="st1" d="M113.5,49.2l-0.6,0.3c0.3,2.3,1.1,3.7,2.6,5.4c6.8,8.8,27.4,14,26.5-2.6C141.2,36.4,116.7,33.2,113.5,49.2z"
			/>
	</g>
	<g>
		<path class="st1" d="M22.8,45.2c-10,14.3,9.7,22.5,20.5,14c2.9-2.3,5.1-5.4,5.7-8.8l0.3,1.7C48.5,36.9,31.7,32.7,22.8,45.2z"/>
	</g>
	<g>
		<path class="st2" d="M133.2,58.8c0.6-0.7,1.1-1.7,1.5-3.1c2.8-9.9-11.7-14.7-15.1-6.2C107.6,42.9,94.2,39.2,80,39.2
			c-13,0-25.3,3.1-36.4,8.7c-2.5-4.1-8.1-7.8-13.6-3.7c-2.5,1.8-4.4,3.9-4.4,7.1c0,2.2,1.3,4.6,2.9,6.2c-5.4,4.3-10.3,9.2-14.7,14.6
			v91.1h132.5V72.1C142.3,67.2,137.9,62.8,133.2,58.8z"/>
	</g>
	<path class="st3" d="M80.1,111.2c-26.5,0-48.5,22.4-52.9,52H133C128.6,133.6,106.6,111.2,80.1,111.2z"/>
	<path class="st1" d="M93.4,60c0.8,1.8,2.8,2.4,4.1,1.3c5-4.8,4.7-12,5-18.9c-2.9-0.8-5.8-1.5-8.7-2C93.4,46.9,91.5,53.5,93.4,60z"
		/>
	<path class="st1" d="M32.5,131.9c2.2-0.1,4.6-1.7,5.6-3.8c0.5-1.3,0.8-3.2-0.3-4.3c-6.4-5.6-15.1-5.1-23-5.1
		c-0.2,0-0.8-0.1-1.1-0.3v13.5C20.1,132.3,26.1,132.1,32.5,131.9z"/>
	<path class="st1" d="M37.3,153c-2.2-8-14.8-4.9-23.6-3.8v11.1c5.5-0.2,10.9-1.1,16.4-2C33.3,157.8,38.2,156.4,37.3,153z"/>
	<path class="st1" d="M118.6,147.7c0.8,2.1,2.7,3.5,5,4c7.6,1.4,15.6-0.1,22.6,1.7v-13.3c-8.2,0.7-16.2,0.5-24.7,2.3
		C119.4,143,117.8,145.3,118.6,147.7z"/>
	<path class="st1" d="M123.1,127c7.8,1.1,15.4,1.8,23.1,1.9V117c-9.1,0.3-20-0.6-26.8,4.7C117.5,123.2,120.2,126.6,123.1,127z"/>
	<path class="st1" d="M65.4,40.5c-3.6,0.7-7.2,1.6-10.7,2.7C54.5,49,53.8,55.1,57,60.1c1.1,1.7,3.1,1.9,4.3,1.3
		C68.2,58.1,65.3,48,65.4,40.5z"/>
	<path class="st1" d="M80,39.2c-2,0-4.1,0.1-6.1,0.2c-0.4,6.7-2.5,13.5-0.8,20.4c0.4,1.8,2.5,2.4,3.8,2.1c7-1.7,5.3-14.5,5.7-22.7
		C81.8,39.2,80.9,39.2,80,39.2z"/>
	<g>
		<circle class="st4" cx="46.9" cy="70.1" r="3.5"/>
		<circle class="st5" cx="45.3" cy="68.7" r="1"/>
		<circle class="st4" cx="111.4" cy="70.1" r="3.5"/>
		<circle class="st5" cx="109.8" cy="68.7" r="1"/>
	</g>
	<g>
		<path class="st4" d="M102.6,86.2c-6.8,6.1-18.4,6.2-22.9-2.6c-0.3-0.6-1-0.5-1.3,0.1c-2.1,4-5.9,6.4-10.3,6.9
			c-4.8,0.5-8.9-1.6-12.6-4.4c-0.6-0.4-1.4,0.4-0.9,1c3.4,3.6,8.8,5.3,13.7,4.8c4.9-0.5,9.1-3.5,11.4-7.8c-0.4,0-0.8,0-1.3,0.1
			c2.2,4.3,6.3,7,11.1,7.7c5.1,0.7,10.1-1.4,13.8-4.7C104,86.6,103.2,85.7,102.6,86.2L102.6,86.2z"/>
	</g>
	<ellipse class="st4" cx="79.1" cy="82.1" rx="2.7" ry="1.8"/>
	<ellipse class="st6" cx="118.9" cy="83.2" rx="8.5" ry="3.2"/>
	<ellipse class="st6" cx="40.2" cy="83.2" rx="8.5" ry="3.2"/>
</g>
</svg>
