<?xml version="1.0" encoding="utf-8"?>
<!-- Generator: Adobe Illustrator 21.1.0, SVG Export Plug-In . SVG Version: 6.00 Build 0)  -->
<svg version="1.1" id="Layer_1" xmlns="http://www.w3.org/2000/svg" xmlns:xlink="http://www.w3.org/1999/xlink" x="0px" y="0px"
	 viewBox="0 0 132.5 185" style="enable-background:new 0 0 132.5 185;" xml:space="preserve">
<style type="text/css">
	.st0{fill:#B9C687;}
	.st1{fill:#A06702;}
	.st2{fill:#5B0018;}
	.st3{fill:#FFFFFF;}
	.st4{fill:#FF9C92;}
	.st5{fill:#FFBEBB;}
	.st6{fill:#FFFFED;}
	.st7{fill:#F8F1DC;}
</style>
<g>
	<rect class="st0" width="132.5" height="185"/>
	<g>
		<path class="st1" d="M125.8,86.5c0.2-0.1,0.3-0.2,0.5-0.3c8.8-6.1-9.9-21.5-13.8-10.8C99,66.2,83.2,61,66.3,61
			c-16.8,0-32.5,5.2-45.9,14.2L20.2,75C13,61-4.6,83.1,6.4,86.8C4.1,89,2,91.4,0,93.9V185h132.5V93.9
			C130.4,91.3,128.2,88.8,125.8,86.5z"/>
	</g>
	<g>
		<circle class="st2" cx="99.4" cy="91.9" r="3.5"/>
		<circle class="st3" cx="101" cy="90.4" r="1"/>
		<circle class="st2" cx="34.9" cy="91.9" r="3.5"/>
		<circle class="st3" cx="36.5" cy="90.4" r="1"/>
	</g>
	<ellipse class="st4" cx="27.3" cy="109" rx="8.5" ry="3.3"/>
	<ellipse class="st4" cx="106.1" cy="109" rx="8.5" ry="3.3"/>
	<ellipse class="st2" cx="66" cy="103.8" rx="4.6" ry="2.3"/>
	<g>
		<path class="st5" d="M115.8,77.7c2.6,1.4,6.6,5.2,6.9,5.6C126.9,79.9,119.2,73.8,115.8,77.7z"/>
	</g>
	<g>
		<path class="st5" d="M9.5,78.4c-0.8,1.5-1.1,3.8,0.4,5.2c1.2-2.3,5.1-5.3,7.1-6.4l-0.1,0C15.3,75.4,10.7,75.9,9.5,78.4z"/>
	</g>
	<g>
		<path class="st6" d="M66.3,106.5c-4.1,4.7-6.4,6.8-7.6,7.9l-0.4,0.2c0.3,4.8,0.4,9.8,1.5,14.3c0.7,0.8,10.2,0.5,10.7,0
			c0.5-0.5,1.5-10.6,2-14.5C68.9,111.1,66.2,106.1,66.3,106.5z"/>
	</g>
	<g>
		<g>
			<path class="st2" d="M90.1,115.8c-9.2,3-19.5-1.5-23.5-10.4c-0.3-0.6-1.1-0.5-1.4,0.1c-2,4.3-5.4,7.6-9.7,9.6
				c-4.6,2-9.2,1.7-14,0.7c-0.7-0.2-0.9,0.9-0.3,1.2c4.6,2,10.3,1.4,14.9-0.5c4.7-2,8.4-5.8,10.4-10.4c-0.5,0-0.9,0-1.4,0.1
				c2.1,4.7,5.8,8.3,10.5,10.3c4.8,2.1,10,2.1,14.9,0.5C91.4,116.7,90.9,115.6,90.1,115.8L90.1,115.8z"/>
		</g>
	</g>
	<path class="st7" d="M66.1,139.4c-29,0-53.2,19.6-58.3,45.6h116.5C119.3,159,95.2,139.4,66.1,139.4z"/>
</g>
</svg>
