<?xml version="1.0" encoding="utf-8"?>
<!-- Generator: Adobe Illustrator 21.1.0, SVG Export Plug-In . SVG Version: 6.00 Build 0)  -->
<svg version="1.1" id="Layer_1" xmlns="http://www.w3.org/2000/svg" xmlns:xlink="http://www.w3.org/1999/xlink" x="0px" y="0px"
	 viewBox="0 0 800 600" style="enable-background:new 0 0 800 600;" xml:space="preserve">
<style type="text/css">
	.st0{fill:#A7DBD8;}
	.st1{fill:#FFFFED;}
	.st2{fill:#F4F3E4;}
	.st3{fill:#5B0018;}
	.st4{fill:#FFFFFF;}
	.st5{fill:#FFD9D7;}
	.st6{fill:#C8C8A9;}
	.st7{fill:#FA6900;}
	.st8{fill:#FF8F7D;}
	.st9{fill:#C2DCD7;}
	.st10{fill:#F8F1DC;}
	.st11{fill:#F9CDAD;}
	.st12{fill:#F9A973;}
	.st13{fill:#FF9A8F;}
	.st14{fill:#BF6121;}
	.st15{fill:#FFC197;}
	.st16{fill:#FF9C92;}
	.st17{fill:#FFBEBB;}
	.st18{fill:#FFDCDC;}
	.st19{fill:#E58585;}
	.st20{fill:#FF9999;}
	.st21{fill:#EAEED5;}
	.st22{fill:#B24C07;}
	.st23{fill:#FE8C32;}
	.st24{fill:#FFC190;}
	.st25{fill:#5F0019;}
	.st26{fill:#FF9583;}
	.st27{fill:#B9C687;}
	.st28{fill:#A06702;}
	.st29{fill:#F9E1A5;}
	.st30{fill:#F4D592;}
	.st31{fill:#7C4E12;}
	.st32{fill:#56553B;}
</style>
<g>
	<rect x="546.9" y="415" class="st0" width="132.5" height="185"/>
	<g>
		<path class="st1" d="M665.2,501.2c0.4-0.3,0.7-0.6,1.1-0.9c2.7-2.7,3.5-6.4,2.1-10c-2.5-6.7-11.8-8-15.8-2.9
			c-11.2-9.7-24.2-15.3-38.2-15.3c-13.9,0-26.9,5.5-38,15.2c-3.7-6.3-13.3-5.6-16.2,1.2c-2.3,4.9-1.8,12,2.9,13.5
			c-6.8,9.4-12.3,20.7-16.2,33.3V600h132.5v-72.5C675.6,517.7,670.9,508.8,665.2,501.2z"/>
	</g>
	<ellipse class="st2" cx="614.9" cy="522.7" rx="19.1" ry="13.1"/>
	<circle class="st3" cx="586.3" cy="506.9" r="3.5"/>
	<circle class="st4" cx="584.7" cy="505.4" r="1"/>
	<circle class="st3" cx="643.6" cy="506.9" r="3.5"/>
	<circle class="st4" cx="642" cy="505.4" r="1"/>
	<ellipse class="st3" cx="614.9" cy="518.4" rx="2.9" ry="2.1"/>
	<ellipse class="st5" cx="645.3" cy="520.7" rx="7.7" ry="3.6"/>
	<ellipse class="st5" cx="584.6" cy="520.7" rx="7.7" ry="3.6"/>
	<g>
		<path class="st5" d="M563.6,489.9c-1.6,2.2-1.3,8,1.3,9.6c1.6-3.8,4.1-7.1,9.2-10.7C574.3,488.7,568.1,483.7,563.6,489.9z"/>
	</g>
	<g>
		<path class="st5" d="M656.4,488.9c2.1-1.7,7.6-1.9,9,0.9c1.2,2.5-0.1,7.3-2.5,8.6l0,0l0,0c-1.2-3.3-4.3-7.4-7.4-8.9L656.4,488.9z"
			/>
	</g>
	<g>
		<path class="st3" d="M611,526.3c2.4-1.2,3.6-3.5,4.5-5.9c-0.4,0-0.7,0-1.1,0.1c0.9,2.4,2.2,4.8,4.7,5.9c0.7,0.3,1.1-0.8,0.4-1.1
			c-2.1-1-3.2-3.2-4-5.3c-0.2-0.5-0.9-0.4-1.1,0c-0.9,2.1-1.8,4.2-3.9,5.2C609.8,525.6,610.3,526.6,611,526.3L611,526.3z"/>
	</g>
</g>
<g>
	<rect x="253.5" y="11.6" class="st6" width="132.5" height="185"/>
	<g>
		<path class="st7" d="M369.8,103.9c5.1-10,4.1-22.7,1.2-33.2c-8.6,4.3-21.2,7.1-27.6,15.6c-7.4-2.8-15.3-4.4-23.5-4.4
			c-9.1,0-17.9,1.9-26.1,5.4c-5.8-7.6-16.3-9.5-22.6-17c-6.6,6.1-7.1,24.8-1.7,34c-6.3,6.5-11.7,14.3-16,22.9v69.2H386v-69.7
			C381.7,118.2,376.2,110.4,369.8,103.9z"/>
	</g>
	<g>
		<path class="st1" d="M349.3,87c5-5,12-8.3,19.2-9.7c1.5,8.3,0.5,16.6-2.3,23.9l0,0c-2.7-3.5-6.4-7.2-10.2-9.7
			c-2.3-1.5-4.9-2-7.2-3.4L349.3,87z"/>
	</g>
	<g>
		<path class="st1" d="M288.6,88.8c-1.6-2.6-5.3-4.9-7.8-6.7c-2.8-1.9-6.7-4.4-9.7-5.4c-4.1,6.5-1,18,2,24.3
			C277.2,94.7,281.1,92.1,288.6,88.8L288.6,88.8z"/>
	</g>
	<path class="st1" d="M386,196.6c-6.2-28.8-33.6-50.5-66.4-50.5c-32.3,0-59.3,21-66.1,49.1v1.4H386z"/>
	<ellipse class="st1" cx="319" cy="127.5" rx="20.1" ry="12.2"/>
	<circle class="st3" cx="291.2" cy="111.3" r="3.5"/>
	<circle class="st4" cx="289.6" cy="109.8" r="1"/>
	<circle class="st3" cx="348.4" cy="111.3" r="3.5"/>
	<circle class="st4" cx="346.8" cy="109.8" r="1"/>
	<g>
		<path class="st3" d="M326,131c-3-1.1-4.8-3.3-6.5-5.9c-0.2-0.3-0.7-0.2-0.9,0c-1.7,2.6-3.5,4.8-6.5,5.9c-0.7,0.3-0.2,1.4,0.5,1.1
			c3.2-1.2,5.1-3.5,7-6.3c-0.3,0-0.6,0-0.9,0c1.8,2.8,3.8,5.1,7,6.3C326.3,132.4,326.7,131.3,326,131L326,131z"/>
	</g>
	<ellipse class="st3" cx="319" cy="124" rx="2.3" ry="1.7"/>
	<ellipse class="st8" cx="354.1" cy="123.4" rx="9.1" ry="3.5"/>
	<ellipse class="st8" cx="284.6" cy="123.4" rx="9.1" ry="3.5"/>
</g>
<g>
	<rect x="400" y="11.5" class="st9" width="132.5" height="185"/>
	<g>
		<path class="st1" d="M516,107.7c7.9-12.9,21-49.9,6.1-61.4c-18.7-14.4-25.9,21.9-28,42.5c-8.2-4.5-17.1-7-26.5-7
			c-8.6,0-16.9,2.1-24.6,6c-2.2-20.7-9.5-55.6-27.9-41.4c-14.4,11.1-2.7,46,5.2,60c-8.7,10.4-15.7,23.6-20.4,38.6v51.7h132.5v-59.4
			C528.2,125.9,522.6,116,516,107.7z"/>
	</g>
	<g>
		<path class="st5" d="M502.6,92c-1.7-5.8,2.4-41.4,13.2-36.4c9.3,4.4,3.7,27.4-0.2,34.1c-3.1,5.2-9.5,9.6-12.7,3L502.6,92z"/>
	</g>
	<g>
		<path class="st5" d="M436,84.3c-0.3-3.5-6.8-43.2-19.7-29.7c-6.3,6.7,6.1,42,13.9,40C435.5,93.4,436.4,89.2,436,84.3z"/>
	</g>
	<circle class="st3" cx="439.5" cy="116.5" r="3.5"/>
	<circle class="st4" cx="437.9" cy="115" r="1"/>
	<circle class="st3" cx="496.7" cy="116.5" r="3.5"/>
	<circle class="st4" cx="495.1" cy="115" r="1"/>
	<g>
		<g>
			<path class="st3" d="M481.7,136c-5.3,2.8-11.2-2.1-13.9-6.3c-0.2-0.4-0.8-0.5-1-0.1c-2.7,4.2-8.6,9.8-13.9,6.5
				c-0.7-0.4-1.3,0.6-0.7,1c5.9,3.7,12.5-1.9,15.6-6.8c-0.3,0-0.7-0.1-1-0.1c3.1,4.8,9.6,10,15.5,6.9
				C482.9,136.7,482.4,135.6,481.7,136L481.7,136z"/>
		</g>
	</g>
	<ellipse class="st3" cx="467.3" cy="128.1" rx="2.9" ry="2.1"/>
	<ellipse class="st5" cx="498.4" cy="130.4" rx="7.7" ry="3.6"/>
	<ellipse class="st5" cx="437.7" cy="130.4" rx="7.7" ry="3.6"/>
</g>
<g>
	<rect x="546.9" y="11.6" class="st10" width="132.5" height="185"/>
	<g>
		<path class="st11" d="M651.7,88.5c1.4-3.6,2.2-7.5,8.3-2.5c2.8,2.4,7.4,10.2,12.4,5.2c3.5-3.7-1.3-10.7-3.7-13.7
			c-8.3-10.5-19.3-2.7-23.8,7c-9.7-5-20.5-7.7-31.8-7.7c-11,0-21.5,2.6-31.1,7.4c-4.6-10.3-13.5-24.5-25.2-16.2
			c-4.4,3-6.1,9.8-5.4,14.8c0.9,6.3,5.9,7.6,9.8,1.7c2.2-3,0.9-10.4,6.1-7.8c3.6,2.1,2.6,10,5.2,13.1c-10.4,7.2-19.2,17.1-25.7,28.9
			v77.8h132.5v-77.8C672.5,106.3,663,95.8,651.7,88.5z"/>
	</g>
	<circle class="st12" cx="568.2" cy="165.3" r="7.8"/>
	<circle class="st12" cx="609.2" cy="177.3" r="4.2"/>
	<path class="st12" d="M550.6,183.1c0-2.2-1.6-4-3.7-4.2v8.4C549,187.1,550.6,185.3,550.6,183.1z"/>
	<circle class="st12" cx="656.1" cy="157.8" r="5.6"/>
	<circle class="st12" cx="645.9" cy="183.6" r="5.2"/>
	<path class="st12" d="M549.7,139.1c0-2-1.2-3.8-2.8-4.6v9.3C548.6,142.9,549.7,141.2,549.7,139.1z"/>
	<path class="st12" d="M582.3,188.7c-4.8,0-8.7,3.4-9.6,7.9h19.2C591,192.1,587.1,188.7,582.3,188.7z"/>
	<path class="st12" d="M672.2,181.7c0,4.5,3.1,8.3,7.2,9.4v-18.9C675.2,173.4,672.2,177.1,672.2,181.7z"/>
	<g>
		<path class="st12" d="M666.6,75.3c-1.8,2.1-4,3.9-6.5,5.6c-1.1,0.9-1.8,2.3-2.1,3.7c0.6,0.4,1.3,0.9,2,1.5
			c2.8,2.4,7.4,10.2,12.4,5.2c3.5-3.7-1.3-10.7-3.7-13.7C668,76.7,667.3,75.9,666.6,75.3z"/>
	</g>
	<g>
		<path class="st12" d="M556.9,68c-4.4,3-6.1,9.8-5.4,14.8c0.9,6.3,5.9,7.6,9.8,1.7c2.2-3,0.9-10.4,6.1-7.8c1.3,0.8,2,2.3,2.5,4
			c0.8-1.4,1.8-2.7,3.1-3.9c1.3-1.3,1.9-3.1,1.8-5C570.1,66.2,564,63,556.9,68z"/>
	</g>
	<ellipse class="st12" cx="614.3" cy="133.3" rx="31.1" ry="17.7"/>
	<circle class="st3" cx="585.3" cy="110.5" r="3.5"/>
	<circle class="st4" cx="583.7" cy="109" r="1"/>
	<circle class="st3" cx="642.5" cy="110.5" r="3.5"/>
	<circle class="st4" cx="640.9" cy="109" r="1"/>
	<g>
		<g>
			<path class="st3" d="M629.6,137.4c-6.2,0.9-12.3-2.8-14.6-8.6c-0.2-0.5-1-0.4-1.2,0.1c-1.2,2.8-3.2,5.1-5.7,6.6
				c-2.4,1.5-5.9,2.6-8.7,1.8c-1-0.3-1.3,1.3-0.3,1.4c1.7,0,3.3,0.1,5-0.2c1.6-0.3,3.2-1,4.6-1.8c2.9-1.7,5.1-4.3,6.4-7.3
				c-0.4,0-0.8,0-1.2,0.1c2.6,6.2,9.3,10.2,16,9.2C630.5,138.4,630.3,137.3,629.6,137.4L629.6,137.4z"/>
		</g>
	</g>
	<ellipse class="st3" cx="614.3" cy="125.8" rx="6.8" ry="3.5"/>
	<ellipse class="st13" cx="648.5" cy="120.4" rx="8.5" ry="3.7"/>
	<ellipse class="st13" cx="580.4" cy="120.1" rx="8.5" ry="3.7"/>
</g>
<g>
	<rect x="105.7" y="11.6" class="st0" width="132.5" height="185"/>
	<g>
		<path class="st14" d="M226.2,107.8c3.7-2.4,5.9-7.4,6.6-11.8c2.8-18.6-20.8-20.2-27.4-11.3c-9.7-7.3-20.6-11.3-32.1-11.3
			c-9.2,0-18,2.6-26.1,7.3c-2.5-2.6-5.8-4.6-8.9-5.3c-7.2-1.4-13.8-1-17.4,5.9c-3,5.6-2.4,14.7,0.9,20c0.4,0.7,0.9,1.3,1.5,1.9
			c-7.5,10.5-13.6,23.4-17.8,37.9v55.4h132.5v-63.7C235,123.6,230.9,115.2,226.2,107.8z"/>
	</g>
	<ellipse class="st15" cx="175.2" cy="126.4" rx="22.9" ry="12.4"/>
	<circle class="st3" cx="146.6" cy="108.2" r="3.5"/>
	<circle class="st4" cx="145" cy="106.7" r="1"/>
	<circle class="st3" cx="202.5" cy="108.2" r="3.5"/>
	<circle class="st4" cx="200.9" cy="106.7" r="1"/>
	<g>
		<g>
			<path class="st3" d="M189,126.9c-5.3,2.8-11.2-2.1-13.9-6.3c-0.2-0.4-0.8-0.5-1-0.1c-2.7,4.2-8.6,9.8-13.9,6.5
				c-0.7-0.4-1.3,0.6-0.7,1c5.9,3.7,12.5-1.9,15.6-6.8c-0.3,0-0.7-0.1-1-0.1c3.1,4.8,9.6,10,15.5,6.9
				C190.2,127.6,189.7,126.5,189,126.9L189,126.9z"/>
		</g>
	</g>
	<ellipse class="st3" cx="174.7" cy="118.9" rx="2.9" ry="2.1"/>
	<g>
		<path class="st15" d="M141.9,83.7c-3.3-4.1-11.6-6.3-15.6-2.7c-4.6,4.2-3.6,15.2,0.9,17.8c2.9-5,8-10.8,13.2-14.2L141.9,83.7z"/>
	</g>
	<g>
		<path class="st15" d="M210.2,85.9c4.7-4.4,12.5-4,16.2-0.1c5.5,5.9,2,13.1-2.6,16.5c-1.6-5.6-9.4-14.1-13.5-16.2L210.2,85.9z"/>
	</g>
	<path class="st15" d="M238.2,196.6c-6.2-28.8-33.6-50.5-66.4-50.5c-32.3,0-59.3,21-66,49.1v1.4H238.2z"/>
	<ellipse class="st16" cx="209.1" cy="119.2" rx="6.7" ry="3.1"/>
	<ellipse class="st16" cx="141.2" cy="119.2" rx="6.7" ry="3.1"/>
</g>
<g>
	<rect x="105.7" y="214.4" class="st10" width="132.5" height="185"/>
	<g>
		<path class="st17" d="M228.5,297.2c0.2-0.6,0.4-1.2,0.6-1.6c1.1-3.3,1.3-7.2,1.5-10.7c0.7-8.3-1.4-15.9-2-24
			c-5,1.9-10.1,3.3-14.8,5.8c-4.2,2.3-10.5,6.9-13.6,11.9c-8.9-3.5-18.4-5.4-28.3-5.4c-10.7,0-21,2.2-30.5,6.3
			c-4.9-9.1-18.1-14.9-26.9-18.9c-3.4,10.5-4.7,26.9,0.3,35.7c0.2,0.3,0.3,0.6,0.5,0.9c-3.5,3.5-6.8,7.2-9.8,11.3v91h132.5v-91
			C235.3,304.4,232,300.6,228.5,297.2z"/>
	</g>
	<g>
		<path class="st17" d="M142.9,283v-1.3c0,0-0.1,0.2-0.3,0.5C142.7,282.4,142.8,282.7,142.9,283z"/>
	</g>
	<g>
		<path class="st18" d="M118.7,269.1c-2,7.5-1.9,16.6,0.9,23.7c4.9-5.2,14.4-9.8,17.2-11.4C131.8,275.8,120.3,268.5,118.7,269.1z"/>
	</g>
	<g>
		<path class="st18" d="M206.2,279.1c0.4,1.3,13.4,6.9,17.6,13.4c5.4-3.9,2.7-20.2,1.2-25.4C215.3,267.1,205.8,277.9,206.2,279.1z"
			/>
	</g>
	<ellipse class="st18" cx="172" cy="332.9" rx="31.5" ry="18.9"/>
	<ellipse class="st19" cx="155.5" cy="332.5" rx="3.3" ry="4.3"/>
	<ellipse class="st19" cx="190" cy="332.5" rx="3.3" ry="4.3"/>
	<circle class="st3" cx="146.1" cy="309.5" r="3.5"/>
	<circle class="st4" cx="144.5" cy="308" r="1"/>
	<circle class="st3" cx="201.9" cy="309.5" r="3.5"/>
	<circle class="st4" cx="200.3" cy="308" r="1"/>
	<ellipse class="st20" cx="214.5" cy="322.8" rx="7.5" ry="4.2"/>
	<ellipse class="st20" cx="130.4" cy="322.8" rx="7.5" ry="4.2"/>
	<path class="st18" d="M172.6,364.9c-32.7,0-59.6,17.7-59.8,34.6h118.7C231.4,382.6,205.3,364.9,172.6,364.9z"/>
</g>
<g>
	<rect x="546.9" y="214.4" class="st21" width="132.5" height="185"/>
	<g>
		<path class="st22" d="M646.7,285.4l-0.6,0.3c0.3,2.3,1.1,3.7,2.6,5.4c6.8,8.8,27.4,14,26.5-2.6
			C674.4,272.6,649.8,269.5,646.7,285.4z"/>
	</g>
	<g>
		<path class="st22" d="M555.9,281.5c-10,14.3,9.7,22.5,20.5,14c2.9-2.3,5.1-5.4,5.7-8.8l0.3,1.7
			C581.6,273.2,564.8,268.9,555.9,281.5z"/>
	</g>
	<g>
		<path class="st23" d="M666.3,295c0.6-0.7,1.1-1.7,1.5-3.1c2.8-9.9-11.7-14.7-15.1-6.2c-11.9-6.6-25.3-10.3-39.6-10.3
			c-13,0-25.3,3.1-36.4,8.7c-2.5-4.1-8.1-7.8-13.6-3.7c-2.5,1.8-4.4,3.9-4.4,7.1c0,2.2,1.3,4.6,2.9,6.2c-5.4,4.3-10.3,9.2-14.7,14.6
			v91.1h132.5v-91.1C675.4,303.5,671,299,666.3,295z"/>
	</g>
	<path class="st24" d="M613.2,347.4c-26.5,0-48.5,22.4-52.9,52h105.9C661.7,369.9,639.7,347.4,613.2,347.4z"/>
	<path class="st22" d="M626.6,296.3c0.8,1.8,2.8,2.4,4.1,1.3c5-4.8,4.7-12,5-18.9c-2.9-0.8-5.8-1.5-8.7-2
		C626.5,283.2,624.7,289.8,626.6,296.3z"/>
	<path class="st22" d="M565.6,368.1c2.2-0.1,4.6-1.7,5.6-3.8c0.5-1.3,0.8-3.2-0.3-4.3c-6.4-5.6-15.1-5.1-23-5.1
		c-0.2,0-0.8-0.1-1.1-0.3v13.5C553.2,368.6,559.3,368.3,565.6,368.1z"/>
	<path class="st22" d="M570.5,389.3c-2.2-8-14.8-4.9-23.6-3.8v11.1c5.5-0.2,10.9-1.1,16.4-2C566.5,394.1,571.4,392.6,570.5,389.3z"
		/>
	<path class="st22" d="M651.8,384c0.8,2.1,2.7,3.5,5,4c7.6,1.4,15.6-0.1,22.6,1.7v-13.3c-8.2,0.7-16.2,0.5-24.7,2.3
		C652.6,379.2,651,381.6,651.8,384z"/>
	<path class="st22" d="M656.3,363.2c7.8,1.1,15.4,1.8,23.1,1.9v-11.9c-9.1,0.3-20-0.6-26.8,4.7C650.7,359.5,653.3,362.8,656.3,363.2
		z"/>
	<path class="st22" d="M598.5,276.7c-3.6,0.7-7.2,1.6-10.7,2.7c-0.2,5.8-0.9,11.9,2.2,16.9c1.1,1.7,3.1,1.9,4.3,1.3
		C601.3,294.4,598.4,284.2,598.5,276.7z"/>
	<path class="st22" d="M613.1,275.4c-2,0-4.1,0.1-6.1,0.2c-0.4,6.7-2.5,13.5-0.8,20.4c0.4,1.8,2.5,2.4,3.8,2.1
		c7-1.7,5.3-14.5,5.7-22.7C614.9,275.4,614,275.4,613.1,275.4z"/>
	<g>
		<circle class="st25" cx="580" cy="306.4" r="3.5"/>
		<circle class="st4" cx="578.4" cy="304.9" r="1"/>
		<circle class="st25" cx="644.5" cy="306.4" r="3.5"/>
		<circle class="st4" cx="642.9" cy="304.9" r="1"/>
	</g>
	<g>
		<path class="st25" d="M635.8,322.4c-6.8,6.1-18.4,6.2-22.9-2.6c-0.3-0.6-1-0.5-1.3,0.1c-2.1,4-5.9,6.4-10.3,6.9
			c-4.8,0.5-8.9-1.6-12.6-4.4c-0.6-0.4-1.4,0.4-0.9,1c3.4,3.6,8.8,5.3,13.7,4.8c4.9-0.5,9.1-3.5,11.4-7.8c-0.4,0-0.8,0-1.3,0.1
			c2.2,4.3,6.3,7,11.1,7.7c5.1,0.7,10.1-1.4,13.8-4.7C637.1,322.8,636.3,321.9,635.8,322.4L635.8,322.4z"/>
	</g>
	<ellipse class="st25" cx="612.2" cy="318.4" rx="2.7" ry="1.8"/>
	<ellipse class="st26" cx="652.1" cy="319.5" rx="8.5" ry="3.2"/>
	<ellipse class="st26" cx="573.3" cy="319.5" rx="8.5" ry="3.2"/>
</g>
<g>
	<rect x="253.5" y="214.4" class="st0" width="132.5" height="185"/>
	<g>
		<path class="st1" d="M377.7,299.3c2.4-11.1,2.7-25.3-2.5-33.9c-8.9,1.9-27.4,4.5-33.3,13c-7.1-2-14.5-3.1-22.1-3.1
			c-7.6,0-15.1,1.1-22.1,3.1c-8-8.2-20-13.1-31.3-15.4c-4.4,7-8,26.6-2.9,34.7c-3.6,3.2-6.9,6.8-9.9,10.6v91.1H386v-91.1
			C383.4,305.1,380.7,302.1,377.7,299.3z"/>
	</g>
	<g>
		<path class="st5" d="M291,279.8c-0.3-2.4-19.4-13.2-21.7-12.1c-2.3,1-5.7,19.1-1.5,25.9C270.5,288.8,281.3,282,291,279.8z"/>
	</g>
	<g>
		<path class="st5" d="M349.7,278.3c5.6-4.8,15.7-7.6,22.9-8.5c3.2,6.4,3.1,19.9,0.4,26.4c-5.8-4.3-11.4-9.2-17.5-13.1
			c-2-1.4-4.4-3.3-6.8-3.7L349.7,278.3z"/>
	</g>
	<g>
		<circle class="st3" cx="286.6" cy="306.4" r="3.5"/>
		<circle class="st4" cx="285" cy="304.9" r="1"/>
		<circle class="st3" cx="351.1" cy="306.4" r="3.5"/>
		<circle class="st4" cx="349.5" cy="304.9" r="1"/>
	</g>
	<g>
		<g>
			<path class="st3" d="M342.4,322.4c-6.8,6.1-18.4,6.2-22.9-2.6c-0.3-0.6-1-0.5-1.3,0.1c-2.1,4-5.9,6.4-10.3,6.9
				c-4.8,0.5-8.9-1.6-12.6-4.4c-0.6-0.4-1.4,0.4-0.9,1c3.4,3.6,8.8,5.3,13.7,4.8c4.9-0.5,9.1-3.5,11.3-7.8c-0.4,0-0.8,0-1.3,0.1
				c2.2,4.3,6.3,7,11.1,7.7c5.1,0.7,10.1-1.4,13.8-4.7C343.7,322.8,343,321.9,342.4,322.4L342.4,322.4z"/>
		</g>
	</g>
	<ellipse class="st3" cx="318.9" cy="318.4" rx="2.7" ry="1.8"/>
	<ellipse class="st5" cx="358.7" cy="319.5" rx="8.5" ry="3.2"/>
	<ellipse class="st5" cx="280" cy="319.5" rx="8.5" ry="3.2"/>
</g>
<g>
	<rect x="105.7" y="415" class="st27" width="132.5" height="185"/>
	<g>
		<path class="st28" d="M231.5,501.5c0.2-0.1,0.3-0.2,0.5-0.3c8.8-6.1-9.9-21.5-13.8-10.8c-13.5-9.2-29.3-14.4-46.3-14.4
			c-16.8,0-32.5,5.2-45.9,14.2l-0.1-0.2c-7.1-14-24.8,8.1-13.8,11.8c-2.2,2.3-4.3,4.6-6.4,7.1V600h132.5v-91.1
			C236.1,506.3,233.9,503.8,231.5,501.5z"/>
	</g>
	<g>
		<circle class="st3" cx="205.1" cy="507" r="3.5"/>
		<circle class="st4" cx="206.7" cy="505.5" r="1"/>
		<circle class="st3" cx="140.6" cy="507" r="3.5"/>
		<circle class="st4" cx="142.2" cy="505.5" r="1"/>
	</g>
	<ellipse class="st16" cx="133.1" cy="524" rx="8.5" ry="3.3"/>
	<ellipse class="st16" cx="211.8" cy="524" rx="8.5" ry="3.3"/>
	<ellipse class="st3" cx="171.7" cy="518.9" rx="4.6" ry="2.3"/>
	<g>
		<path class="st17" d="M221.6,492.8c2.6,1.4,6.6,5.2,6.9,5.6C232.6,494.9,225,488.8,221.6,492.8z"/>
	</g>
	<g>
		<path class="st17" d="M115.2,493.4c-0.8,1.5-1.1,3.8,0.4,5.2c1.2-2.3,5.1-5.3,7.1-6.4l-0.1,0C121,490.4,116.5,490.9,115.2,493.4z"
			/>
	</g>
	<g>
		<path class="st1" d="M172,521.5c-4.1,4.7-6.4,6.8-7.6,7.9l-0.4,0.2c0.3,4.8,0.4,9.8,1.5,14.3c0.7,0.8,10.2,0.5,10.7,0
			c0.5-0.5,1.5-10.6,2-14.5C174.6,526.1,171.9,521.1,172,521.5z"/>
	</g>
	<g>
		<g>
			<path class="st3" d="M195.9,530.9c-9.2,3-19.5-1.5-23.5-10.4c-0.3-0.6-1.1-0.5-1.4,0.1c-2,4.3-5.4,7.6-9.7,9.6
				c-4.6,2-9.2,1.7-14,0.7c-0.7-0.2-0.9,0.9-0.3,1.2c4.6,2,10.3,1.4,14.9-0.5c4.7-2,8.4-5.8,10.4-10.4c-0.5,0-0.9,0-1.4,0.1
				c2.1,4.7,5.8,8.3,10.5,10.3c4.8,2.1,10,2.1,14.9,0.5C197.1,531.7,196.6,530.6,195.9,530.9L195.9,530.9z"/>
		</g>
	</g>
	<path class="st10" d="M171.9,554.4c-29,0-53.2,19.6-58.3,45.6h116.5C225,574.1,200.9,554.4,171.9,554.4z"/>
</g>
<g>
	<rect x="400" y="415" class="st10" width="132.5" height="185"/>
	<g>
		<path class="st23" d="M525.1,488.7c2.7,0.3,5,0.4,7.4,1.5v-3c-2.9-4.2-8.9-5.2-13.4-7.8c4.4-0.7,9.2-0.8,13.4,0.9v-2.4
			c-5.2-5.5-14.7-6-22-7c3.6-2,7.7-2.4,11.3-2c-5.1-6.2-18.6-5.7-26.3-3.6c3.6-3.6,8.9-4.5,13.8-4.5c-10.9-6.9-25.9-2.3-32.8,2.4
			c1.1-5.7,11.3-8.3,18.6-8.9c-9.3-2.4-23.9-2.8-28.8,7.3c-4.5-7.3-14.6-8.5-22.3-7.3c5.3,1.2,10.5,3.2,14.6,7.3
			c-10.3-4.8-21.9-5.3-32.4-0.8c4.5,0.4,9.3,0.8,13.4,2.4c-10.1,0-21.5,2.8-30,8.9c4.5,0.4,9.3-1.2,13.8-1.2
			c-8.1,2.4-15,6.5-21.9,11.8c2.8,0,5.7,0.8,8.5,0.8c-4.5,1.3-7.7,3.2-10,5.6v30.3c8.2,0.2,17.7-1.9,25-1.9
			c11.3-0.4,23.1-0.4,34.4-0.4c23.1-0.4,46.2,0.8,69.3,0.4c1.3,0,2.5,0,3.7-0.1V495C529.9,492.5,527.2,490.3,525.1,488.7z"/>
	</g>
	<g>
		<path class="st29" d="M515.3,492.4c13.2-6.9-9.3-24.8-15-10c0,0-0.3,0.6-0.4,1c-10.4-4.7-21.8-7.4-33.7-7.4
			c-10.4,0-20.3,2-29.6,5.6c-1.8-14.4-28.3-3.2-16.7,7.1c0.5,0.4,1,0.6,1.5,0.8c-8,5.2-15.3,11.8-21.4,19.5V600h132.5v-91.1
			C527.4,502.6,521.7,497.1,515.3,492.4z"/>
	</g>
	<g>
		<circle class="st3" cx="433.1" cy="507" r="3.5"/>
		<circle class="st4" cx="431.5" cy="505.5" r="1"/>
		<circle class="st3" cx="497.6" cy="507" r="3.5"/>
		<circle class="st4" cx="496" cy="505.5" r="1"/>
	</g>
	<ellipse class="st16" cx="505.2" cy="524" rx="8.5" ry="3.3"/>
	<ellipse class="st16" cx="426.5" cy="524" rx="8.5" ry="3.3"/>
	<ellipse class="st30" cx="466.7" cy="522.5" rx="19" ry="11.4"/>
	<g>
		<path class="st3" d="M478.2,522.3c-3.1,3.5-9.2,0.3-11.2-3c-0.1-0.2-0.5-0.3-0.7-0.1c-2,3.3-8.1,6.6-11.2,3
			c-0.3-0.4-0.9,0.1-0.6,0.5c3.5,4,10.2,0.7,12.5-3.1c-0.2,0-0.5,0-0.7-0.1c2.3,3.8,9,7.1,12.6,3.1
			C479.2,522.3,478.5,521.9,478.2,522.3L478.2,522.3z"/>
	</g>
	<ellipse class="st3" cx="466.7" cy="517.7" rx="3.2" ry="1.6"/>
	<g>
		<path class="st30" d="M424.2,479.8c-3.1,2.4-2.1,5.4-0.8,8c2.8-2.6,5.7-4.3,10.1-5.3C431.3,477.2,426.7,478,424.2,479.8z"/>
	</g>
	<g>
		<path class="st30" d="M504.1,483.9c1.7,0.3,6.7,2.9,8.8,6C520.1,483.7,507.3,475.7,504.1,483.9z"/>
	</g>
</g>
<g>
	<rect x="400" y="214.4" class="st7" width="132.5" height="185"/>
	<g>
		<path class="st31" d="M505.4,286.1c6-15.6,28.1,8.3,12.5,11c-3.8,0.8-12.3-5.5-13-9.3c0-0.5,0.3-1,0.3-1.3L505.4,286.1z"/>
	</g>
	<g>
		<path class="st31" d="M430.1,286.3c0.8-16.3-23.8-2-15.3,5.8c4,3.5,11.8-4,15.1-5.8H430.1z"/>
	</g>
	<path class="st1" d="M532.5,399.4v-91.1c-16.3-20.2-39.9-32.9-66.3-32.9c-26.3,0-49.9,12.7-66.3,32.9v91.1H532.5z"/>
	<path class="st31" d="M464.5,374.4c-17.6,0.2-48.7-4.5-64.5-11.7v36.7h132.5v-39.6C522.5,366.8,492.4,374.1,464.5,374.4z"/>
	<ellipse class="st31" cx="497.9" cy="306.2" rx="11.5" ry="9.5"/>
	<ellipse class="st31" cx="433.2" cy="306.7" rx="11.5" ry="9.5"/>
	<g>
		<circle class="st3" cx="433.1" cy="306.4" r="3.5"/>
		<circle class="st4" cx="431.5" cy="304.9" r="1"/>
		<circle class="st3" cx="497.6" cy="306.4" r="3.5"/>
		<circle class="st4" cx="496" cy="304.9" r="1"/>
	</g>
	<ellipse class="st5" cx="505.2" cy="323.4" rx="8.5" ry="3.2"/>
	<ellipse class="st5" cx="426.5" cy="323.4" rx="8.5" ry="3.2"/>
	<g>
		<g>
			<path class="st3" d="M479,327.6c-2.5-0.1-4.9-0.7-7-2.1c-2.2-1.4-3.7-3.6-4.8-6c-0.2-0.5-0.9-0.4-1.1,0c-2.2,4.6-6.4,8-11.7,7.9
				c-1,0-0.9,1.5,0.1,1.3c2.8-0.4,5.2-0.9,7.6-2.4c2.4-1.5,4-4,5.2-6.5c-0.4,0-0.8,0-1.1,0.1c1.2,2.4,2.8,4.6,5,6.2
				c2.3,1.7,5.1,2.3,7.8,2.5C479.6,328.9,479.7,327.7,479,327.6L479,327.6z"/>
		</g>
	</g>
	<ellipse class="st3" cx="466.7" cy="318.3" rx="4.6" ry="2.3"/>
</g>
<g>
	<rect x="253.5" y="415" class="st29" width="132.5" height="185"/>
	<g>
		<path class="st6" d="M373.9,496.4c4.1-8.7,6.9-20.4,1.9-28.1c-9.2,1.8-23.6,3.3-28.8,12.4c-8.6-3.1-17.7-4.7-27.2-4.7
			c-8.4,0-16.5,1.3-24.2,3.7c-4.9-6.9-21.1-13.2-27-13.8c-4.6,6.7-2,19.6,0.9,27.5c-5.9,4.5-11.2,9.7-15.9,15.6V600H386v-91.1
			C382.3,504.3,378.3,500.1,373.9,496.4z"/>
	</g>
	<path class="st32" d="M286.9,523.8c10.1-0.5,20.6-3.5,29.4-9.1c1.1-0.5,2.4-0.5,3.5,0c17.8,9.3,37.7,8,57.4,4
		c3.2-0.8,6.2-2.2,8.9-3.8v-6c-7-8.7-9.4-12-18.7-17.5c-12.2-3.3-24.8,2-29.6,5.3c-8.4,5.8-16.9,10-35.8-1.4
		c-10.1-6.3-21.6-5.4-32.4-2c-5.9,4.5-11.2,9.7-16,15.6v11.7c1.5,1.1,3.1,1.9,4.8,2.1C267.9,524,277.6,524.4,286.9,523.8z"/>
	<g>
		<circle cx="352.9" cy="507" r="3.5"/>
		<circle class="st4" cx="354.5" cy="505.5" r="1"/>
		<circle cx="288.4" cy="507" r="3.5"/>
		<circle class="st4" cx="290" cy="505.5" r="1"/>
	</g>
	<path class="st10" d="M319.7,554.4c-29,0-53.2,19.6-58.3,45.6h116.5C372.8,574.1,348.7,554.4,319.7,554.4z"/>
	<ellipse class="st10" cx="321.2" cy="522.4" rx="19.2" ry="10.4"/>
	<g>
		<path class="st32" d="M270.6,473.2c-0.5,5.6-0.5,11.4,2.3,16.4l0,0c2.6-1.4,4.6-4,7.5-5.5c2.3-1.2,5.3-2.5,7.8-2.8
			c-3.2-3-6.4-5.1-10.5-6.6c-1.8-0.6-5.2-2.2-6.8-1.5H270.6z"/>
	</g>
	<g>
		<path class="st32" d="M353.4,480.6c4.6-3.7,13-5.7,18.7-5.8l0,0l0,0c0.5,5.4,1.6,11.5-2.4,15.9c-1.9-3.7-12-10-16.1-10.2H353.4z"
			/>
	</g>
	<g>
		<path class="st3" d="M334.7,523.8c-2,2-4.6,3-7.3,2.1c-2.6-0.8-4.4-3.1-5.2-5.7c-0.2-0.5-1-0.7-1.1-0.1c-0.8,2.6-2.5,4.6-5,5.7
			c-2.7,1.1-5.6,0.1-7.5-2c-0.5-0.6-1.4,0.2-0.9,0.8c2.2,2.3,5.2,3.5,8.4,2.5c3.1-1,5.3-3.5,6.2-6.5c-0.4,0-0.8-0.1-1.1-0.1
			c0.9,3,3,5.5,6,6.6c3.1,1.1,6.3,0,8.5-2.3C336,524.2,335.2,523.3,334.7,523.8L334.7,523.8z"/>
	</g>
	<ellipse class="st3" cx="321.4" cy="519.2" rx="2.9" ry="1.5"/>
</g>
</svg>
