<?xml version="1.0" encoding="utf-8"?>
<!-- Generator: Adobe Illustrator 21.1.0, SVG Export Plug-In . SVG Version: 6.00 Build 0)  -->
<svg version="1.1" id="Layer_1" xmlns="http://www.w3.org/2000/svg" xmlns:xlink="http://www.w3.org/1999/xlink" x="0px" y="0px"
	 viewBox="0 0 132.5 132.3" style="enable-background:new 0 0 132.5 132.3;" xml:space="preserve">
<style type="text/css">
	.st0{fill:#A7DBD8;}
	.st1{fill:#BF6121;}
	.st2{fill:#FFC197;}
	.st3{fill:#5B0018;}
	.st4{fill:#FFFFFF;}
	.st5{fill:#FF9C92;}
</style>
<g>
	<rect y="-41.9" class="st0" width="132.5" height="185"/>
	<g>
		<path class="st1" d="M120.5,54.3c3.7-2.4,5.9-7.4,6.6-11.8c2.8-18.6-20.8-20.2-27.4-11.3C90,24,79.1,19.9,67.6,19.9
			c-9.2,0-18,2.6-26.1,7.3c-2.5-2.6-5.8-4.6-8.9-5.3c-7.2-1.4-13.8-1-17.4,5.9c-3,5.6-2.4,14.7,0.9,20c0.4,0.7,0.9,1.3,1.5,1.9
			C10.3,60.3,4.2,73.2,0,87.7v55.4h132.5V79.3C129.2,70.2,125.2,61.8,120.5,54.3z"/>
	</g>
	<ellipse class="st2" cx="69.5" cy="72.9" rx="22.9" ry="12.4"/>
	<circle class="st3" cx="40.9" cy="54.7" r="3.5"/>
	<circle class="st4" cx="39.3" cy="53.2" r="1"/>
	<circle class="st3" cx="96.7" cy="54.7" r="3.5"/>
	<circle class="st4" cx="95.1" cy="53.2" r="1"/>
	<g>
		<g>
			<path class="st3" d="M83.3,73.4C78,76.1,72.1,71.3,69.4,67c-0.2-0.4-0.8-0.5-1-0.1c-2.7,4.2-8.6,9.8-13.9,6.5
				c-0.7-0.4-1.3,0.6-0.7,1c5.9,3.7,12.5-1.9,15.6-6.8c-0.3,0-0.7-0.1-1-0.1c3.1,4.8,9.6,10,15.5,6.9C84.5,74.1,84,73,83.3,73.4
				L83.3,73.4z"/>
		</g>
	</g>
	<ellipse class="st3" cx="68.9" cy="65.5" rx="2.9" ry="2.1"/>
	<g>
		<path class="st2" d="M36.1,30.3c-3.3-4.1-11.6-6.3-15.6-2.7c-4.6,4.2-3.6,15.2,0.9,17.8c2.9-5,8-10.8,13.2-14.2L36.1,30.3z"/>
	</g>
	<g>
		<path class="st2" d="M104.4,32.4c4.7-4.4,12.5-4,16.2-0.1c5.5,5.9,2,13.1-2.6,16.5c-1.6-5.6-9.4-14.1-13.5-16.2L104.4,32.4z"/>
	</g>
	<path class="st2" d="M132.4,143.1c-6.2-28.8-33.6-50.5-66.4-50.5c-32.3,0-59.3,21-66,49.1v1.4H132.4z"/>
	<ellipse class="st5" cx="103.4" cy="65.7" rx="6.7" ry="3.1"/>
	<ellipse class="st5" cx="35.5" cy="65.7" rx="6.7" ry="3.1"/>
</g>
</svg>
