<?xml version="1.0" encoding="utf-8"?>
<!-- Generator: Adobe Illustrator 21.1.0, SVG Export Plug-In . SVG Version: 6.00 Build 0)  -->
<svg version="1.1" id="Layer_1" xmlns="http://www.w3.org/2000/svg" xmlns:xlink="http://www.w3.org/1999/xlink" x="0px" y="0px"
	 viewBox="0 0 150 150" style="enable-background:new 0 0 150 150;" xml:space="preserve">
<style type="text/css">
	.st0{fill:#A7DBD8;}
	.st1{fill:#BF6121;}
	.st2{fill:#FFC197;}
	.st3{fill:#5B0018;}
	.st4{fill:#FFFFFF;}
	.st5{fill:#FF9C92;}
</style>
<g>
	<rect class="st0" width="150" height="150"/>
	<g>
		<path class="st1" d="M129.2,60.5c3.7-2.4,5.9-7.4,6.6-11.8c2.8-18.6-20.8-20.2-27.4-11.3c-9.7-7.3-20.6-11.3-32.1-11.3
			c-9.2,0-18,2.6-26.1,7.3c-2.5-2.6-5.8-4.6-8.9-5.3c-7.2-1.4-13.8-1-17.4,5.9c-3,5.6-2.4,14.7,0.9,20c0.4,0.7,0.9,1.3,1.5,1.9
			C19,66.5,12.9,79.4,8.7,93.9v55.4h132.5V85.5C138,76.4,133.9,68,129.2,60.5z"/>
	</g>
	<ellipse class="st2" cx="78.2" cy="79.1" rx="22.9" ry="12.4"/>
	<circle class="st3" cx="49.6" cy="60.9" r="3.5"/>
	<circle class="st4" cx="48" cy="59.4" r="1"/>
	<circle class="st3" cx="105.5" cy="60.9" r="3.5"/>
	<circle class="st4" cx="103.9" cy="59.4" r="1"/>
	<g>
		<g>
			<path class="st3" d="M92,79.6c-5.3,2.8-11.2-2.1-13.9-6.3c-0.2-0.4-0.8-0.5-1-0.1c-2.7,4.2-8.6,9.8-13.9,6.5
				c-0.7-0.4-1.3,0.6-0.7,1c5.9,3.7,12.5-1.9,15.6-6.8c-0.3,0-0.7-0.1-1-0.1c3.1,4.8,9.6,10,15.5,6.9C93.2,80.3,92.7,79.2,92,79.6
				L92,79.6z"/>
		</g>
	</g>
	<ellipse class="st3" cx="77.7" cy="71.7" rx="2.9" ry="2.1"/>
	<g>
		<path class="st2" d="M44.9,36.5c-3.3-4.1-11.6-6.3-15.6-2.7C24.7,38,25.6,49,30.2,51.6c2.9-5,8-10.8,13.2-14.2L44.9,36.5z"/>
	</g>
	<g>
		<path class="st2" d="M113.2,38.6c4.7-4.4,12.5-4,16.2-0.1c5.5,5.9,2,13.1-2.6,16.5c-1.6-5.6-9.4-14.1-13.5-16.2L113.2,38.6z"/>
	</g>
	<path class="st2" d="M141.2,149.3c-6.2-28.8-33.6-50.5-66.4-50.5c-32.3,0-59.3,21-66,49.1v1.4H141.2z"/>
	<ellipse class="st5" cx="112.1" cy="71.9" rx="6.7" ry="3.1"/>
	<ellipse class="st5" cx="44.2" cy="71.9" rx="6.7" ry="3.1"/>
</g>
</svg>
