<?xml version="1.0" encoding="utf-8"?>
<!-- Generator: Adobe Illustrator 21.1.0, SVG Export Plug-In . SVG Version: 6.00 Build 0)  -->
<svg version="1.1" id="Layer_1" xmlns="http://www.w3.org/2000/svg" xmlns:xlink="http://www.w3.org/1999/xlink" x="0px" y="0px"
	 viewBox="0 0 132.5 185" style="enable-background:new 0 0 132.5 185;" xml:space="preserve">
<style type="text/css">
	.st0{fill:#A7DBD8;}
	.st1{fill:#FFFFED;}
	.st2{fill:#FFD9D7;}
	.st3{fill:#5B0018;}
	.st4{fill:#FFFFFF;}
</style>
<g>
	<rect class="st0" width="132.5" height="185"/>
	<g>
		<path class="st1" d="M124.2,84.9c2.4-11.1,2.7-25.3-2.5-33.9c-8.9,1.9-27.4,4.5-33.3,13C81.3,62,73.9,61,66.3,61
			c-7.6,0-15.1,1.1-22.1,3.1c-8-8.2-20-13.1-31.3-15.4c-4.4,7-8,26.6-2.9,34.7C6.4,86.6,3.1,90.1,0,93.9V185h132.5V93.9
			C129.9,90.7,127.1,87.7,124.2,84.9z"/>
	</g>
	<g>
		<path class="st2" d="M37.5,65.4C37.2,63,18.1,52.2,15.8,53.3c-2.3,1-5.7,19.1-1.5,25.9C17,74.4,27.8,67.5,37.5,65.4z"/>
	</g>
	<g>
		<path class="st2" d="M96.2,63.8c5.6-4.8,15.7-7.6,22.9-8.5c3.2,6.4,3.1,19.9,0.4,26.4c-5.8-4.3-11.4-9.2-17.5-13.1
			c-2-1.4-4.4-3.3-6.8-3.7L96.2,63.8z"/>
	</g>
	<g>
		<circle class="st3" cx="33.1" cy="91.9" r="3.5"/>
		<circle class="st4" cx="31.5" cy="90.4" r="1"/>
		<circle class="st3" cx="97.6" cy="91.9" r="3.5"/>
		<circle class="st4" cx="96" cy="90.4" r="1"/>
	</g>
	<g>
		<g>
			<path class="st3" d="M88.9,108c-6.8,6.1-18.4,6.2-22.9-2.6c-0.3-0.6-1-0.5-1.3,0.1c-2.1,4-5.9,6.4-10.3,6.9
				c-4.8,0.5-8.9-1.6-12.6-4.4c-0.6-0.4-1.4,0.4-0.9,1c3.4,3.6,8.8,5.3,13.7,4.8c4.9-0.5,9.1-3.5,11.3-7.8c-0.4,0-0.8,0-1.3,0.1
				c2.2,4.3,6.3,7,11.1,7.7c5.1,0.7,10.1-1.4,13.8-4.7C90.2,108.4,89.4,107.5,88.9,108L88.9,108z"/>
		</g>
	</g>
	<ellipse class="st3" cx="65.4" cy="103.9" rx="2.7" ry="1.8"/>
	<ellipse class="st2" cx="105.2" cy="105" rx="8.5" ry="3.2"/>
	<ellipse class="st2" cx="26.4" cy="105" rx="8.5" ry="3.2"/>
</g>
</svg>
