<?xml version="1.0" encoding="utf-8"?>
<!-- Generator: Adobe Illustrator 21.1.0, SVG Export Plug-In . SVG Version: 6.00 Build 0)  -->
<svg version="1.1" id="Layer_1" xmlns="http://www.w3.org/2000/svg" xmlns:xlink="http://www.w3.org/1999/xlink" x="0px" y="0px"
	 viewBox="0 0 132.5 185" style="enable-background:new 0 0 132.5 185;" xml:space="preserve">
<style type="text/css">
	.st0{fill:#C8C8A9;}
	.st1{fill:#FA6900;}
	.st2{fill:#FFFFED;}
	.st3{fill:#5B0018;}
	.st4{fill:#FFFFFF;}
	.st5{fill:#FF8F7D;}
</style>
<g>
	<rect class="st0" width="132.5" height="185"/>
	<g>
		<path class="st1" d="M116.3,92.3c5.1-10,4.1-22.7,1.2-33.2c-8.6,4.3-21.2,7.1-27.6,15.6c-7.4-2.8-15.3-4.4-23.5-4.4
			c-9.1,0-17.9,1.9-26.1,5.4c-5.8-7.6-16.3-9.5-22.6-17c-6.6,6.1-7.1,24.8-1.7,34c-6.3,6.5-11.7,14.3-16,22.9V185h132.5v-69.7
			C128.2,106.6,122.7,98.8,116.3,92.3z"/>
	</g>
	<g>
		<path class="st2" d="M95.7,75.4c5-5,12-8.3,19.2-9.7c1.5,8.3,0.5,16.6-2.3,23.9l0,0c-2.7-3.5-6.4-7.2-10.2-9.7
			c-2.3-1.5-4.9-2-7.2-3.4L95.7,75.4z"/>
	</g>
	<g>
		<path class="st2" d="M35,77.2c-1.6-2.6-5.3-4.9-7.8-6.7c-2.8-1.9-6.7-4.4-9.7-5.4c-4.1,6.5-1,18,2,24.3
			C23.6,83.2,27.6,80.5,35,77.2L35,77.2z"/>
	</g>
	<path class="st2" d="M132.5,185c-6.2-28.8-33.6-50.5-66.4-50.5c-32.3,0-59.3,21-66.1,49.1v1.4H132.5z"/>
	<ellipse class="st2" cx="65.5" cy="116" rx="20.1" ry="12.2"/>
	<circle class="st3" cx="37.6" cy="99.8" r="3.5"/>
	<circle class="st4" cx="36" cy="98.3" r="1"/>
	<circle class="st3" cx="94.9" cy="99.8" r="3.5"/>
	<circle class="st4" cx="93.3" cy="98.3" r="1"/>
	<g>
		<path class="st3" d="M72.4,119.4c-3-1.1-4.8-3.3-6.5-5.9c-0.2-0.3-0.7-0.2-0.9,0c-1.7,2.6-3.5,4.8-6.5,5.9
			c-0.7,0.3-0.2,1.4,0.5,1.1c3.2-1.2,5.1-3.5,7-6.3c-0.3,0-0.6,0-0.9,0c1.8,2.8,3.8,5.1,7,6.3C72.8,120.8,73.2,119.7,72.4,119.4
			L72.4,119.4z"/>
	</g>
	<ellipse class="st3" cx="65.5" cy="112.5" rx="2.3" ry="1.7"/>
	<ellipse class="st5" cx="100.5" cy="111.9" rx="9.1" ry="3.5"/>
	<ellipse class="st5" cx="31" cy="111.9" rx="9.1" ry="3.5"/>
</g>
</svg>
