<?xml version="1.0" encoding="utf-8"?>
<!-- Generator: Adobe Illustrator 21.1.0, SVG Export Plug-In . SVG Version: 6.00 Build 0)  -->
<svg version="1.1" id="Layer_1" xmlns="http://www.w3.org/2000/svg" xmlns:xlink="http://www.w3.org/1999/xlink" x="0px" y="0px"
	 viewBox="0 0 160 160" style="enable-background:new 0 0 160 160;" xml:space="preserve">
<style type="text/css">
	.st0{fill:#F8F1DC;}
	.st1{fill:#FE8C32;}
	.st2{fill:#F9E1A5;}
	.st3{fill:#5B0018;}
	.st4{fill:#FFFFFF;}
	.st5{fill:#FF9C92;}
	.st6{fill:#F4D592;}
</style>
<g>
	<rect class="st0" width="160" height="160"/>
	<g>
		<path class="st1" d="M138.9,65.3c2.7,0.3,5,0.4,7.4,1.5v-3c-2.9-4.2-8.9-5.2-13.4-7.8c4.4-0.7,9.2-0.8,13.4,0.9v-2.4
			c-5.2-5.5-14.7-6-22-7c3.6-2,7.7-2.4,11.3-2c-5.1-6.2-18.6-5.7-26.3-3.6c3.6-3.6,8.9-4.5,13.8-4.5c-10.9-6.9-25.9-2.3-32.8,2.4
			c1.1-5.7,11.3-8.3,18.6-8.9C99.6,28.4,85,28,80.1,38.1c-4.5-7.3-14.6-8.5-22.3-7.3c5.3,1.2,10.5,3.2,14.6,7.3
			c-10.3-4.8-21.9-5.3-32.4-0.8c4.5,0.4,9.3,0.8,13.4,2.4c-10.1,0-21.5,2.8-30,8.9c4.5,0.4,9.3-1.2,13.8-1.2
			c-8.1,2.4-15,6.5-21.9,11.8c2.8,0,5.7,0.8,8.5,0.8c-4.5,1.3-7.7,3.2-10,5.6v30.3c8.2,0.2,17.7-1.9,25-1.9
			c11.3-0.4,23.1-0.4,34.4-0.4c23.1-0.4,46.2,0.8,69.3,0.4c1.3,0,2.5,0,3.7-0.1V71.5C143.6,69,141,66.9,138.9,65.3z"/>
	</g>
	<g>
		<path class="st2" d="M129.1,69c13.2-6.9-9.3-24.8-15-10c0,0-0.3,0.6-0.4,1c-10.4-4.7-21.8-7.4-33.7-7.4c-10.4,0-20.3,2-29.6,5.6
			c-1.8-14.4-28.3-3.2-16.7,7.1c0.5,0.4,1,0.6,1.5,0.8c-8,5.2-15.3,11.8-21.4,19.5v91.1h132.5V85.5C141.2,79.2,135.4,73.6,129.1,69z
			"/>
	</g>
	<g>
		<circle class="st3" cx="46.9" cy="83.5" r="3.5"/>
		<circle class="st4" cx="45.3" cy="82" r="1"/>
		<circle class="st3" cx="111.4" cy="83.5" r="3.5"/>
		<circle class="st4" cx="109.8" cy="82" r="1"/>
	</g>
	<ellipse class="st5" cx="118.9" cy="100.5" rx="8.5" ry="3.3"/>
	<ellipse class="st5" cx="40.2" cy="100.5" rx="8.5" ry="3.3"/>
	<ellipse class="st6" cx="80.4" cy="99" rx="19" ry="11.4"/>
	<g>
		<path class="st3" d="M91.9,98.8c-3.1,3.5-9.2,0.3-11.2-3c-0.1-0.2-0.5-0.3-0.7-0.1c-2,3.3-8.1,6.6-11.2,3
			c-0.3-0.4-0.9,0.1-0.6,0.5c3.5,4,10.2,0.7,12.5-3.1c-0.2,0-0.5,0-0.7-0.1c2.3,3.8,9,7.1,12.6,3.1C92.9,98.9,92.3,98.5,91.9,98.8
			L91.9,98.8z"/>
	</g>
	<ellipse class="st3" cx="80.4" cy="94.3" rx="3.2" ry="1.6"/>
	<g>
		<path class="st6" d="M38,56.4c-3.1,2.4-2.1,5.4-0.8,8c2.8-2.6,5.7-4.3,10.1-5.3C45.1,53.8,40.4,54.6,38,56.4z"/>
	</g>
	<g>
		<path class="st6" d="M117.8,60.4c1.7,0.3,6.7,2.9,8.8,6C133.9,60.2,121,52.2,117.8,60.4z"/>
	</g>
</g>
</svg>
