<?xml version="1.0" encoding="utf-8"?>
<!-- Generator: Adobe Illustrator 21.1.0, SVG Export Plug-In . SVG Version: 6.00 Build 0)  -->
<svg version="1.1" id="Layer_1" xmlns="http://www.w3.org/2000/svg" xmlns:xlink="http://www.w3.org/1999/xlink" x="0px" y="0px"
	 viewBox="0 0 160 160.7" style="enable-background:new 0 0 160 160.7;" xml:space="preserve">
<style type="text/css">
	.st0{fill:#F8F1DC;}
	.st1{fill:#FFBEBB;}
	.st2{fill:#FFDCDC;}
	.st3{fill:#E58585;}
	.st4{fill:#5B0018;}
	.st5{fill:#FFFFFF;}
	.st6{fill:#FF9999;}
</style>
<g>
	<rect class="st0" width="160" height="160"/>
	<g>
		<path class="st1" d="M137.8,58.5c0.2-0.6,0.4-1.2,0.6-1.6c1.1-3.3,1.3-7.2,1.5-10.7c0.7-8.3-1.4-15.9-2-24
			c-5,1.9-10.1,3.3-14.8,5.8c-4.2,2.3-10.5,6.9-13.6,11.9c-8.9-3.5-18.4-5.4-28.3-5.4c-10.7,0-21,2.2-30.5,6.3
			c-4.9-9.1-18.1-14.9-26.9-18.9c-3.4,10.5-4.7,26.9,0.3,35.7c0.2,0.3,0.3,0.6,0.5,0.9c-3.5,3.5-6.8,7.2-9.8,11.3v91h132.5v-91
			C144.5,65.7,141.3,61.9,137.8,58.5z"/>
	</g>
	<g>
		<path class="st1" d="M52.1,44.3V43c0,0-0.1,0.2-0.3,0.5C52,43.7,52.1,44,52.1,44.3z"/>
	</g>
	<g>
		<path class="st2" d="M27.9,30.4c-2,7.5-1.9,16.6,0.9,23.7c4.9-5.2,14.4-9.8,17.2-11.4C41.1,37.1,29.6,29.8,27.9,30.4z"/>
	</g>
	<g>
		<path class="st2" d="M115.4,40.4c0.4,1.3,13.4,6.9,17.6,13.4c5.4-3.9,2.7-20.2,1.2-25.4C124.6,28.4,115,39.2,115.4,40.4z"/>
	</g>
	<ellipse class="st2" cx="81.3" cy="94.2" rx="31.5" ry="18.9"/>
	<ellipse class="st3" cx="64.7" cy="93.8" rx="3.3" ry="4.3"/>
	<ellipse class="st3" cx="99.3" cy="93.8" rx="3.3" ry="4.3"/>
	<circle class="st4" cx="55.3" cy="70.8" r="3.5"/>
	<circle class="st5" cx="53.7" cy="69.3" r="1"/>
	<circle class="st4" cx="111.2" cy="70.8" r="3.5"/>
	<circle class="st5" cx="109.6" cy="69.3" r="1"/>
	<ellipse class="st6" cx="123.8" cy="84.2" rx="7.5" ry="4.2"/>
	<ellipse class="st6" cx="39.7" cy="84.2" rx="7.5" ry="4.2"/>
	<path class="st2" d="M81.8,126.2c-32.7,0-59.6,17.7-59.8,34.6h118.7C140.6,143.9,114.5,126.2,81.8,126.2z"/>
</g>
</svg>
