<?xml version="1.0" encoding="utf-8"?>
<!-- Generator: Adobe Illustrator 21.1.0, SVG Export Plug-In . SVG Version: 6.00 Build 0)  -->
<svg version="1.1" id="Layer_1" xmlns="http://www.w3.org/2000/svg" xmlns:xlink="http://www.w3.org/1999/xlink" x="0px" y="0px"
	 viewBox="0 0 132.5 185" style="enable-background:new 0 0 132.5 185;" xml:space="preserve">
<style type="text/css">
	.st0{fill:#A7DBD8;}
	.st1{fill:#FFFFED;}
	.st2{fill:#F4F3E4;}
	.st3{fill:#5B0018;}
	.st4{fill:#FFFFFF;}
	.st5{fill:#FFD9D7;}
</style>
<g>
	<rect class="st0" width="132.5" height="185"/>
	<g>
		<path class="st1" d="M118.4,86.2c0.4-0.3,0.7-0.6,1.1-0.9c2.7-2.7,3.5-6.4,2.1-10c-2.5-6.7-11.8-8-15.8-2.9
			c-11.2-9.7-24.2-15.3-38.2-15.3c-13.9,0-26.9,5.5-38,15.2c-3.7-6.3-13.3-5.6-16.2,1.2c-2.3,4.9-1.8,12,2.9,13.5
			C9.5,96.4,3.9,107.7,0,120.2V185h132.5v-72.5C128.8,102.6,124,93.8,118.4,86.2z"/>
	</g>
	<ellipse class="st2" cx="68.1" cy="107.7" rx="19.1" ry="13.1"/>
	<circle class="st3" cx="39.5" cy="91.9" r="3.5"/>
	<circle class="st4" cx="37.9" cy="90.4" r="1"/>
	<circle class="st3" cx="96.7" cy="91.9" r="3.5"/>
	<circle class="st4" cx="95.1" cy="90.4" r="1"/>
	<ellipse class="st3" cx="68.1" cy="103.4" rx="2.9" ry="2.1"/>
	<ellipse class="st5" cx="98.4" cy="105.7" rx="7.7" ry="3.6"/>
	<ellipse class="st5" cx="37.7" cy="105.7" rx="7.7" ry="3.6"/>
	<g>
		<path class="st5" d="M16.7,74.9c-1.6,2.2-1.3,8,1.3,9.6c1.6-3.8,4.1-7.1,9.2-10.7C27.4,73.7,21.2,68.7,16.7,74.9z"/>
	</g>
	<g>
		<path class="st5" d="M109.5,73.9c2.1-1.7,7.6-1.9,9,0.9c1.2,2.5-0.1,7.3-2.5,8.6l0,0l0,0c-1.2-3.3-4.3-7.4-7.4-8.9L109.5,73.9z"/>
	</g>
	<g>
		<path class="st3" d="M64.1,111.3c2.4-1.2,3.6-3.5,4.5-5.9c-0.4,0-0.7,0-1.1,0.1c0.9,2.4,2.2,4.8,4.7,5.9c0.7,0.3,1.1-0.8,0.4-1.1
			c-2.1-1-3.2-3.2-4-5.3c-0.2-0.5-0.9-0.4-1.1,0c-0.9,2.1-1.8,4.2-3.9,5.2C62.9,110.6,63.4,111.6,64.1,111.3L64.1,111.3z"/>
	</g>
</g>
</svg>
