<?xml version="1.0" encoding="utf-8"?>
<!-- Generator: Adobe Illustrator 21.1.0, SVG Export Plug-In . SVG Version: 6.00 Build 0)  -->
<svg version="1.1" id="Layer_1" xmlns="http://www.w3.org/2000/svg" xmlns:xlink="http://www.w3.org/1999/xlink" x="0px" y="0px"
	 viewBox="0 0 132.5 185" style="enable-background:new 0 0 132.5 185;" xml:space="preserve">
<style type="text/css">
	.st0{fill:#F9E1A5;}
	.st1{fill:#C8C8A9;}
	.st2{fill:#56553B;}
	.st3{fill:#FFFFFF;}
	.st4{fill:#F8F1DC;}
	.st5{fill:#5B0018;}
</style>
<g>
	<rect class="st0" width="132.5" height="185"/>
	<g>
		<path class="st1" d="M120.3,81.4c4.1-8.7,6.9-20.4,1.9-28.1c-9.2,1.8-23.6,3.3-28.8,12.4C84.8,62.6,75.7,61,66.3,61
			c-8.4,0-16.5,1.3-24.2,3.7c-4.9-6.9-21.1-13.2-27-13.8c-4.6,6.7-2,19.6,0.9,27.5C10.1,82.8,4.7,88,0,93.9V185h132.5V93.9
			C128.8,89.3,124.7,85.1,120.3,81.4z"/>
	</g>
	<path class="st2" d="M33.4,108.8c10.1-0.5,20.6-3.5,29.4-9.1c1.1-0.5,2.4-0.5,3.5,0c17.8,9.3,37.7,8,57.4,4
		c3.2-0.8,6.2-2.2,8.9-3.8v-6c-7-8.7-9.4-12-18.7-17.5c-12.2-3.3-24.8,2-29.6,5.3c-8.4,5.8-16.9,10-35.8-1.4
		c-10.1-6.3-21.6-5.4-32.4-2C10.1,82.8,4.7,88,0,93.9v11.7c1.5,1.1,3.1,1.9,4.8,2.1C14.4,109,24.1,109.3,33.4,108.8z"/>
	<g>
		<circle cx="99.4" cy="91.9" r="3.5"/>
		<circle class="st3" cx="101" cy="90.4" r="1"/>
		<circle cx="34.9" cy="91.9" r="3.5"/>
		<circle class="st3" cx="36.5" cy="90.4" r="1"/>
	</g>
	<path class="st4" d="M66.1,139.4c-29,0-53.2,19.6-58.3,45.6h116.5C119.3,159,95.2,139.4,66.1,139.4z"/>
	<ellipse class="st4" cx="67.7" cy="107.4" rx="19.2" ry="10.4"/>
	<g>
		<path class="st2" d="M17.1,58.1c-0.5,5.6-0.5,11.4,2.3,16.4l0,0c2.6-1.4,4.6-4,7.5-5.5c2.3-1.2,5.3-2.5,7.8-2.8
			c-3.2-3-6.4-5.1-10.5-6.6c-1.8-0.6-5.2-2.2-6.8-1.5H17.1z"/>
	</g>
	<g>
		<path class="st2" d="M99.8,65.6c4.6-3.7,13-5.7,18.7-5.8l0,0l0,0c0.5,5.4,1.6,11.5-2.4,15.9c-1.9-3.7-12-10-16.1-10.2H99.8z"/>
	</g>
	<g>
		<path class="st5" d="M81.1,108.8c-2,2-4.6,3-7.3,2.1c-2.6-0.8-4.4-3.1-5.2-5.7c-0.2-0.5-1-0.7-1.1-0.1c-0.8,2.6-2.5,4.6-5,5.7
			c-2.7,1.1-5.6,0.1-7.5-2c-0.5-0.6-1.4,0.2-0.9,0.8c2.2,2.3,5.2,3.5,8.4,2.5c3.1-1,5.3-3.5,6.2-6.5c-0.4,0-0.8-0.1-1.1-0.1
			c0.9,3,3,5.5,6,6.6c3.1,1.1,6.3,0,8.5-2.3C82.4,109.2,81.7,108.2,81.1,108.8L81.1,108.8z"/>
	</g>
	<ellipse class="st5" cx="67.9" cy="104.2" rx="2.9" ry="1.5"/>
</g>
</svg>
