<?xml version="1.0" encoding="utf-8"?>
<!-- Generator: Adobe Illustrator 21.1.0, SVG Export Plug-In . SVG Version: 6.00 Build 0)  -->
<svg version="1.1" id="Layer_1" xmlns="http://www.w3.org/2000/svg" xmlns:xlink="http://www.w3.org/1999/xlink" x="0px" y="0px"
	 viewBox="0 0 132.5 185" style="enable-background:new 0 0 132.5 185;" xml:space="preserve">
<style type="text/css">
	.st0{fill:#C2DCD7;}
	.st1{fill:#FFFFED;}
	.st2{fill:#FFD9D7;}
	.st3{fill:#5B0018;}
	.st4{fill:#FFFFFF;}
</style>
<g>
	<rect class="st0" width="132.5" height="185"/>
	<g>
		<path class="st1" d="M116,96.2c7.9-12.9,21-49.9,6.1-61.4c-18.7-14.4-25.9,21.9-28,42.5c-8.2-4.5-17.1-7-26.5-7
			c-8.6,0-16.9,2.1-24.6,6c-2.2-20.7-9.5-55.6-27.9-41.4c-14.4,11.1-2.7,46,5.2,60C11.7,105.1,4.7,118.3,0,133.4V185h132.5v-59.4
			C128.2,114.4,122.6,104.4,116,96.2z"/>
	</g>
	<g>
		<path class="st2" d="M102.5,80.5c-1.7-5.8,2.4-41.4,13.2-36.4c9.3,4.4,3.7,27.4-0.2,34.1c-3.1,5.2-9.5,9.6-12.7,3L102.5,80.5z"/>
	</g>
	<g>
		<path class="st2" d="M36,72.8c-0.3-3.5-6.8-43.2-19.7-29.7c-6.3,6.7,6.1,42,13.9,40C35.5,81.8,36.4,77.7,36,72.8z"/>
	</g>
	<circle class="st3" cx="39.5" cy="105" r="3.5"/>
	<circle class="st4" cx="37.9" cy="103.5" r="1"/>
	<circle class="st3" cx="96.7" cy="105" r="3.5"/>
	<circle class="st4" cx="95.1" cy="103.5" r="1"/>
	<g>
		<g>
			<path class="st3" d="M81.7,124.5c-5.3,2.8-11.2-2.1-13.9-6.3c-0.2-0.4-0.8-0.5-1-0.1c-2.7,4.2-8.6,9.8-13.9,6.5
				c-0.7-0.4-1.3,0.6-0.7,1c5.9,3.7,12.5-1.9,15.6-6.8c-0.3,0-0.7-0.1-1-0.1c3.1,4.8,9.6,10,15.5,6.9
				C82.9,125.2,82.4,124.1,81.7,124.5L81.7,124.5z"/>
		</g>
	</g>
	<ellipse class="st3" cx="67.3" cy="116.5" rx="2.9" ry="2.1"/>
	<ellipse class="st2" cx="98.4" cy="118.8" rx="7.7" ry="3.6"/>
	<ellipse class="st2" cx="37.7" cy="118.8" rx="7.7" ry="3.6"/>
</g>
</svg>
