<?xml version="1.0" encoding="utf-8"?>
<!-- Generator: Adobe Illustrator 21.1.0, SVG Export Plug-In . SVG Version: 6.00 Build 0)  -->
<svg version="1.1" id="Layer_1" xmlns="http://www.w3.org/2000/svg" xmlns:xlink="http://www.w3.org/1999/xlink" x="0px" y="0px"
	 viewBox="0 0 132.5 185" style="enable-background:new 0 0 132.5 185;" xml:space="preserve">
<style type="text/css">
	.st0{fill:#F8F1DC;}
	.st1{fill:#FFBEBB;}
	.st2{fill:#FFDCDC;}
	.st3{fill:#E58585;}
	.st4{fill:#5B0018;}
	.st5{fill:#FFFFFF;}
	.st6{fill:#FF9999;}
</style>
<g>
	<rect class="st0" width="132.5" height="185"/>
	<g>
		<path class="st1" d="M122.8,82.8c0.2-0.6,0.4-1.2,0.6-1.6c1.1-3.3,1.3-7.2,1.5-10.7c0.7-8.3-1.4-15.9-2-24
			c-5,1.9-10.1,3.3-14.8,5.8c-4.2,2.3-10.5,6.9-13.6,11.9c-8.9-3.5-18.4-5.4-28.3-5.4c-10.7,0-21,2.2-30.5,6.3
			c-4.9-9.1-18.1-14.9-26.9-18.9C5.5,56.6,4.2,73.1,9.2,81.8c0.2,0.3,0.3,0.6,0.5,0.9C6.3,86.1,3,89.9,0,94v91h132.5V94
			C129.5,89.9,126.3,86.2,122.8,82.8z"/>
	</g>
	<g>
		<path class="st1" d="M37.1,68.5v-1.3c0,0-0.1,0.2-0.3,0.5C37,68,37.1,68.2,37.1,68.5z"/>
	</g>
	<g>
		<path class="st2" d="M12.9,54.6c-2,7.5-1.9,16.6,0.9,23.7C18.7,73.1,28.2,68.6,31,67C26.1,61.3,14.6,54.1,12.9,54.6z"/>
	</g>
	<g>
		<path class="st2" d="M100.4,64.7c0.4,1.3,13.4,6.9,17.6,13.4c5.4-3.9,2.7-20.2,1.2-25.4C109.6,52.6,100,63.4,100.4,64.7z"/>
	</g>
	<ellipse class="st2" cx="66.3" cy="118.5" rx="31.5" ry="18.9"/>
	<ellipse class="st3" cx="49.7" cy="118" rx="3.3" ry="4.3"/>
	<ellipse class="st3" cx="84.3" cy="118" rx="3.3" ry="4.3"/>
	<circle class="st4" cx="40.3" cy="95" r="3.5"/>
	<circle class="st5" cx="38.7" cy="93.5" r="1"/>
	<circle class="st4" cx="96.2" cy="95" r="3.5"/>
	<circle class="st5" cx="94.6" cy="93.5" r="1"/>
	<ellipse class="st6" cx="108.8" cy="108.4" rx="7.5" ry="4.2"/>
	<ellipse class="st6" cx="24.7" cy="108.4" rx="7.5" ry="4.2"/>
	<path class="st2" d="M66.8,150.4c-32.7,0-59.6,17.7-59.8,34.6h118.7C125.6,168.1,99.5,150.4,66.8,150.4z"/>
</g>
</svg>
