<?xml version="1.0" encoding="utf-8"?>
<!-- Generator: Adobe Illustrator 21.1.0, SVG Export Plug-In . SVG Version: 6.00 Build 0)  -->
<svg version="1.1" id="Layer_1" xmlns="http://www.w3.org/2000/svg" xmlns:xlink="http://www.w3.org/1999/xlink" x="0px" y="0px"
	 viewBox="0 0 132.5 185" style="enable-background:new 0 0 132.5 185;" xml:space="preserve">
<style type="text/css">
	.st0{fill:#F8F1DC;}
	.st1{fill:#FE8C32;}
	.st2{fill:#F9E1A5;}
	.st3{fill:#5B0018;}
	.st4{fill:#FFFFFF;}
	.st5{fill:#FF9C92;}
	.st6{fill:#F4D592;}
</style>
<g>
	<rect class="st0" width="132.5" height="185"/>
	<g>
		<path class="st1" d="M125.1,73.7c2.7,0.3,5,0.4,7.4,1.5v-3c-2.9-4.2-8.9-5.2-13.4-7.8c4.4-0.7,9.2-0.8,13.4,0.9v-2.4
			c-5.2-5.5-14.7-6-22-7c3.6-2,7.7-2.4,11.3-2c-5.1-6.2-18.6-5.7-26.3-3.6c3.6-3.6,8.9-4.5,13.8-4.5c-10.9-6.9-25.9-2.3-32.8,2.4
			c1.1-5.7,11.3-8.3,18.6-8.9c-9.3-2.4-23.9-2.8-28.8,7.3c-4.5-7.3-14.6-8.5-22.3-7.3c5.3,1.2,10.5,3.2,14.6,7.3
			c-10.3-4.8-21.9-5.3-32.4-0.8c4.5,0.4,9.3,0.8,13.4,2.4c-10.1,0-21.5,2.8-30,8.9c4.5,0.4,9.3-1.2,13.8-1.2
			c-8.1,2.4-15,6.5-21.9,11.8c2.8,0,5.7,0.8,8.5,0.8C5.5,69.8,2.3,71.7,0,74v30.3c8.2,0.2,17.7-1.9,25-1.9
			c11.3-0.4,23.1-0.4,34.4-0.4c23.1-0.4,46.2,0.8,69.3,0.4c1.3,0,2.5,0,3.7-0.1V79.9C129.9,77.5,127.2,75.3,125.1,73.7z"/>
	</g>
	<g>
		<path class="st2" d="M115.3,77.4c13.2-6.9-9.3-24.8-15-10c0,0-0.3,0.6-0.4,1C89.6,63.6,78.2,61,66.3,61c-10.4,0-20.3,2-29.6,5.6
			c-1.8-14.4-28.3-3.2-16.7,7.1c0.5,0.4,1,0.6,1.5,0.8C13.4,79.7,6.2,86.2,0,93.9V185h132.5V93.9C127.4,87.6,121.7,82.1,115.3,77.4z
			"/>
	</g>
	<g>
		<circle class="st3" cx="33.1" cy="91.9" r="3.5"/>
		<circle class="st4" cx="31.5" cy="90.4" r="1"/>
		<circle class="st3" cx="97.6" cy="91.9" r="3.5"/>
		<circle class="st4" cx="96" cy="90.4" r="1"/>
	</g>
	<ellipse class="st5" cx="105.2" cy="109" rx="8.5" ry="3.3"/>
	<ellipse class="st5" cx="26.4" cy="109" rx="8.5" ry="3.3"/>
	<ellipse class="st6" cx="66.6" cy="107.5" rx="19" ry="11.4"/>
	<g>
		<path class="st3" d="M78.2,107.3c-3.1,3.5-9.2,0.3-11.2-3c-0.1-0.2-0.5-0.3-0.7-0.1c-2,3.3-8.1,6.6-11.2,3
			c-0.3-0.4-0.9,0.1-0.6,0.5c3.5,4,10.2,0.7,12.5-3.1c-0.2,0-0.5,0-0.7-0.1c2.3,3.8,9,7.1,12.6,3.1
			C79.2,107.3,78.5,106.9,78.2,107.3L78.2,107.3z"/>
	</g>
	<ellipse class="st3" cx="66.6" cy="102.7" rx="3.2" ry="1.6"/>
	<g>
		<path class="st6" d="M24.2,64.8c-3.1,2.4-2.1,5.4-0.8,8c2.8-2.6,5.7-4.3,10.1-5.3C31.3,62.2,26.6,63,24.2,64.8z"/>
	</g>
	<g>
		<path class="st6" d="M104.1,68.9c1.7,0.3,6.7,2.9,8.8,6C120.1,68.6,107.2,60.6,104.1,68.9z"/>
	</g>
</g>
</svg>
